<svg width="20" height="20" viewBox="0 0 20 20" fill="none" xmlns="http://www.w3.org/2000/svg">
<g clip-path="url(#clip0_702_27210)">
<path d="M1.6665 17.5V2.5H9.7915V5.9375H18.3332V13.0208H17.0832V7.1875H9.7915V9.375H11.4582V10.625H9.7915V12.8125H11.4582V14.0625H9.7915V16.25H13.854V17.5H1.6665ZM2.9165 16.25H5.104V14.0625H2.9165V16.25ZM2.9165 12.8125H5.104V10.625H2.9165V12.8125ZM2.9165 9.375H5.104V7.1875H2.9165V9.375ZM2.9165 5.9375H5.104V3.75H2.9165V5.9375ZM6.354 16.25H8.5415V14.0625H6.354V16.25ZM6.354 12.8125H8.5415V10.625H6.354V12.8125ZM6.354 9.375H8.5415V7.1875H6.354V9.375ZM6.354 5.9375H8.5415V3.75H6.354V5.9375ZM16.9373 19.1667V17.3542H15.104V16.1042H16.9373V14.2708H18.1873V16.1042H19.9998V17.3542H18.1873V19.1667H16.9373ZM13.6457 10.625V9.375H14.8957V10.625H13.6457ZM13.6457 14.0625V12.8125H14.8957V14.0625H13.6457Z" fill="white" fill-opacity="0.75"/>
</g>
<defs>
<clipPath id="clip0_702_27210">
<rect width="20" height="20" fill="white"/>
</clipPath>
</defs>
</svg>
