<svg width="32" height="32" viewBox="0 0 32 32" fill="none" xmlns="http://www.w3.org/2000/svg">
<path d="M2.96634 23.6993L1.33301 22.4993L7.59967 12.4993L11.5997 17.166L16.8997 8.56602L20.533 13.966C20.1775 14.0105 19.833 14.0827 19.4997 14.1827C19.1663 14.2827 18.833 14.3993 18.4997 14.5327L16.9997 12.2327L11.8997 20.5327L7.86634 15.8327L2.96634 23.6993ZM29.233 30.666L24.7663 26.1993C24.2997 26.5327 23.7941 26.7882 23.2497 26.966C22.7052 27.1438 22.1441 27.2327 21.5663 27.2327C19.9886 27.2327 18.6497 26.6827 17.5497 25.5827C16.4497 24.4827 15.8997 23.1438 15.8997 21.566C15.8997 19.9882 16.4497 18.6494 17.5497 17.5493C18.6497 16.4494 19.9886 15.8993 21.5663 15.8993C23.1441 15.8993 24.483 16.4494 25.583 17.5493C26.683 18.6494 27.233 19.9882 27.233 21.566C27.233 22.1438 27.1386 22.7049 26.9497 23.2493C26.7608 23.7938 26.5108 24.3105 26.1997 24.7994L30.6663 29.2327L29.233 30.666ZM21.5663 25.2327C22.5886 25.2327 23.4552 24.8771 24.1663 24.166C24.8775 23.4549 25.233 22.5882 25.233 21.566C25.233 20.5438 24.8775 19.6771 24.1663 18.966C23.4552 18.2549 22.5886 17.8993 21.5663 17.8993C20.5441 17.8993 19.6775 18.2549 18.9663 18.966C18.2552 19.6771 17.8997 20.5438 17.8997 21.566C17.8997 22.5882 18.2552 23.4549 18.9663 24.166C19.6775 24.8771 20.5441 25.2327 21.5663 25.2327ZM24.033 14.2993C23.6997 14.166 23.3552 14.0771 22.9997 14.0327C22.6441 13.9882 22.2775 13.9438 21.8997 13.8993L29.033 2.66602L30.6663 3.86602L24.033 14.2993Z" fill="white" fill-opacity="0.75"/>
</svg>
