<svg width="32" height="32" viewBox="0 0 32 32" fill="none" xmlns="http://www.w3.org/2000/svg">
<path d="M16 28C12.6444 28 9.80556 27.4833 7.48333 26.45C5.16111 25.4167 4 24.1556 4 22.6667V9.33333C4 7.86667 5.17222 6.61111 7.51667 5.56667C9.86111 4.52222 12.6889 4 16 4C19.3111 4 22.1389 4.52222 24.4833 5.56667C26.8278 6.61111 28 7.86667 28 9.33333V22.6667C28 24.1556 26.8389 25.4167 24.5167 26.45C22.1944 27.4833 19.3556 28 16 28ZM16 11.7333C17.9111 11.7333 19.8722 11.4389 21.8833 10.85C23.8944 10.2611 25.1889 9.6 25.7667 8.86667C25.1667 8.15556 23.8611 7.5 21.85 6.9C19.8389 6.3 17.8889 6 16 6C14.0444 6 12.0778 6.28889 10.1 6.86667C8.12222 7.44444 6.82222 8.11111 6.2 8.86667C6.82222 9.64444 8.11111 10.3167 10.0667 10.8833C12.0222 11.45 14 11.7333 16 11.7333ZM15.9667 18.8667C16.9 18.8667 17.8333 18.8167 18.7667 18.7167C19.7 18.6167 20.5944 18.4667 21.45 18.2667C22.3056 18.0667 23.1222 17.8222 23.9 17.5333C24.6778 17.2444 25.3778 16.9222 26 16.5667V11.4C25.3556 11.7556 24.6444 12.0778 23.8667 12.3667C23.0889 12.6556 22.2667 12.9 21.4 13.1C20.5333 13.3 19.6444 13.4556 18.7333 13.5667C17.8222 13.6778 16.9 13.7333 15.9667 13.7333C15.0333 13.7333 14.1 13.6778 13.1667 13.5667C12.2333 13.4556 11.3389 13.3 10.4833 13.1C9.62778 12.9 8.81667 12.6556 8.05 12.3667C7.28333 12.0778 6.6 11.7556 6 11.4V16.5667C6.6 16.9222 7.27778 17.2444 8.03333 17.5333C8.78889 17.8222 9.59444 18.0667 10.45 18.2667C11.3056 18.4667 12.2 18.6167 13.1333 18.7167C14.0667 18.8167 15.0111 18.8667 15.9667 18.8667ZM16 26C17.0667 26 18.1667 25.9056 19.3 25.7167C20.4333 25.5278 21.4722 25.2778 22.4167 24.9667C23.3611 24.6556 24.1611 24.3111 24.8167 23.9333C25.4722 23.5556 25.8667 23.1667 26 22.7667V18.6C25.3778 18.9556 24.6778 19.2722 23.9 19.55C23.1222 19.8278 22.3056 20.0667 21.45 20.2667C20.5944 20.4667 19.7056 20.6167 18.7833 20.7167C17.8611 20.8167 16.9222 20.8667 15.9667 20.8667C15.0111 20.8667 14.0667 20.8167 13.1333 20.7167C12.2 20.6167 11.3056 20.4667 10.45 20.2667C9.59444 20.0667 8.78889 19.8278 8.03333 19.55C7.27778 19.2722 6.6 18.9556 6 18.6V22.8C6.11111 23.1778 6.48889 23.5611 7.13333 23.95C7.77778 24.3389 8.57778 24.6833 9.53333 24.9833C10.4889 25.2833 11.5333 25.5278 12.6667 25.7167C13.8 25.9056 14.9111 26 16 26Z" fill="white" fill-opacity="0.75"/>
</svg>
