<svg width="155" height="30" viewBox="0 0 155 30" fill="none" xmlns="http://www.w3.org/2000/svg">
<path fill-rule="evenodd" clip-rule="evenodd" d="M72.4925 11.6069L74.7163 16.6897H70.2866L72.4925 11.6069ZM73.5771 8.9375H71.4815L65.8204 21.7362H68.1361L69.4599 18.6676H75.5439L76.8489 21.7362H79.2382L73.5771 8.9375ZM41.7626 17.9769C41.7626 19.1568 40.8249 19.7561 39.2809 19.7561H35.531V16.2704H39.1154C40.8984 16.2704 41.7626 16.906 41.7626 17.9769ZM41.0455 12.6227C41.0455 13.8208 40.0715 14.3837 38.6195 14.3837H35.531V11.007H38.785C40.2365 11.007 41.0455 11.6244 41.0455 12.6227ZM39.079 9.02798H33.3076V21.7353H39.2629C42.1302 21.7353 44.0236 20.5197 44.0236 18.2502C44.0236 16.4892 42.976 15.6362 41.4688 15.1282C42.4244 14.6374 43.307 13.8207 43.307 12.2958C43.307 11.4064 43.0128 10.7163 42.4428 10.1539C41.7079 9.4275 40.55 9.02798 39.079 9.02798ZM48.9662 21.736H46.7057V9.02808H48.9662V21.736ZM52.4037 9.02808H54.4993L61.3918 17.8144V9.02808H63.6161V21.736H61.7227L54.6274 12.6954V21.736H52.4037V9.02808ZM87.0116 15.3291C88.6291 15.3291 89.6583 14.4942 89.6583 13.1685C89.6583 11.8071 88.6659 11.0625 86.9932 11.0625H83.703V15.3291H87.0116ZM81.4424 9.02808H87.1776C90.192 9.02808 91.9566 10.6256 91.9566 13.0767C91.9566 15.1646 90.6884 16.4166 88.887 16.9256L92.3611 21.736H89.6955L86.4978 17.3065H83.7035V21.736H81.4424V9.02808ZM92.9669 9.02905L98.0769 16.7258V21.7364H100.356V16.6718L105.466 9.02905H102.874L99.2348 14.6566L95.6325 9.02905H92.9669ZM107.69 9.02808H116.752V9.89976H108.646V15.1101H115.925V15.9808H108.646V21.736H107.69V9.02808ZM120.703 9.02808H119.747V21.736H128.257V20.8643H120.703V9.02808ZM130.574 16.4529V9.02808H131.53V16.3621C131.53 19.358 133.166 21.0822 135.886 21.0822C138.496 21.0822 140.169 19.5209 140.169 16.4529V9.02808H141.124V16.344C141.124 19.9926 138.974 21.9352 135.849 21.9352C132.761 21.9352 130.574 20.0107 130.574 16.4529ZM143.788 9.02808L148.732 15.2549L143.603 21.736H144.725L149.283 15.8723L153.861 21.736H155L149.89 15.2373L154.816 9.02808H153.695L149.32 14.6193L144.927 9.02808H143.788Z" fill="white"/>
<mask id="mask0_702_8416" style="mask-type:luminance" maskUnits="userSpaceOnUse" x="0" y="0" width="23" height="30">
<path fill-rule="evenodd" clip-rule="evenodd" d="M21.8773 0.329613H18.0632C18 0.139031 17.8162 0 17.6006 0C17.3324 0 17.1157 0.214014 17.1157 0.476455C17.1157 0.739416 17.3324 0.95291 17.6006 0.95291C17.6452 0.95291 17.6882 0.947182 17.7291 0.936768L19.6234 3.78404C19.5841 3.83143 19.5544 3.88662 19.5358 3.94703L15.7403 4.03763C15.7307 3.98764 15.7121 3.94026 15.6877 3.89756C16.9814 2.78479 17.4753 1.50174 17.4769 1.49706C15.6643 0.516029 13.4806 0 11.1694 0C5.15294 0 0 3.49244 0 9.60825V20.3912C0 26.5076 5.15294 30 11.1694 30C15.1455 30 18.744 28.4753 20.7275 25.676C20.735 25.676 20.7408 25.676 20.7482 25.676C21.0164 25.676 21.2331 25.463 21.2331 25.2006C21.2331 25.1146 21.2103 25.0345 21.1699 24.9647C21.4965 24.5486 21.7647 24.0821 21.9192 23.5785C22.112 23.516 22.2522 23.338 22.2522 23.1271C22.2522 23.0339 22.2257 22.9474 22.1784 22.8745C22.4078 22.1049 22.5177 21.2962 22.5257 20.4907C22.6325 20.4032 22.7004 20.2715 22.7004 20.1246C22.7004 19.8622 22.4832 19.6487 22.2156 19.6487L21.3367 18.1917C21.4115 18.1074 21.4577 17.9975 21.4577 17.8777C21.4577 17.7595 21.4142 17.6517 21.342 17.5684L22.2251 16.1599C22.2612 16.1687 22.2995 16.1734 22.3393 16.1734C22.6075 16.1734 22.8247 15.9605 22.8247 15.6975C22.8247 15.4861 22.684 15.3064 22.4891 15.2445V10.8944C22.684 10.8319 22.8247 10.6528 22.8247 10.4414C22.8247 10.2295 22.684 10.0503 22.4891 9.98837V7.03123C22.684 6.96926 22.8247 6.78961 22.8247 6.5782C22.8247 6.36679 22.684 6.18714 22.4891 6.12518V0.929478C22.684 0.867513 22.8247 0.688386 22.8247 0.476455C22.8247 0.214014 22.6075 0 22.3393 0C22.1232 0 21.9405 0.139031 21.8773 0.329613ZM17.9783 0.775617C18.0155 0.730835 18.0447 0.678763 18.0632 0.623047L21.8774 0.623568C21.8965 0.681367 21.9262 0.73448 21.965 0.780303L20.1233 3.62185C20.0845 3.61248 20.0431 3.60727 20.0016 3.60727C19.957 3.60727 19.9145 3.613 19.8747 3.62341L17.9783 0.775617ZM20.4238 4.31691C20.4631 4.24765 20.486 4.16746 20.486 4.08258C20.486 3.96751 20.4446 3.86128 20.3755 3.77953L22.1886 0.981201V6.12483C22.171 6.13056 22.153 6.13733 22.1355 6.14514L20.4238 4.31691ZM15.6676 4.39305C15.6804 4.37378 15.6926 4.35347 15.7027 4.33212L19.5444 4.24048C19.6103 4.42585 19.7903 4.55864 20.0022 4.55864C20.0749 4.55864 20.1429 4.54301 20.2051 4.5149L21.9167 6.34365C21.879 6.40926 21.8561 6.48476 21.8545 6.56495L18.6209 7.50224C18.5327 7.37727 18.3867 7.295 18.2205 7.295C18.1509 7.295 18.085 7.30958 18.0256 7.33509L15.6676 4.39305ZM11.8215 5.47552C13.0998 5.37294 14.1194 4.97407 14.9208 4.46533C14.9394 4.48408 14.9596 4.4997 14.9803 4.5148L13.8396 8.00672C13.7753 8.00724 13.7132 8.01974 13.6569 8.04265L11.616 5.68849C11.6409 5.63069 11.6547 5.56717 11.6547 5.50104C11.6547 5.4927 11.6542 5.48437 11.6542 5.47604C11.6765 5.4776 11.6978 5.47969 11.7206 5.48125C11.7546 5.47969 11.788 5.4776 11.8215 5.47552ZM14.2742 8.69749C14.3076 8.63292 14.3262 8.56002 14.3262 8.48296C14.3262 8.32362 14.2471 8.18302 14.1244 8.09606L15.2651 4.60362C15.3236 4.60362 15.3788 4.59321 15.4303 4.57446L17.7999 7.53005C17.7574 7.60086 17.7335 7.68314 17.7335 7.77114C17.7335 7.91017 17.7951 8.03566 17.8923 8.12314L16.3676 10.3195C16.314 10.2992 16.2551 10.2883 16.194 10.2883C16.1117 10.2883 16.0336 10.3081 15.9656 10.3435L14.2742 8.69749ZM6.12063 20.7744V9.22648C6.12063 6.71142 8.74463 5.63198 10.6846 5.47681C10.6841 5.48514 10.6835 5.49347 10.6835 5.5018C10.6835 5.71373 10.8248 5.89338 11.0197 5.95534V10.3122C10.8248 10.3741 10.6835 10.5538 10.6835 10.7652C10.6835 11.0276 10.9013 11.2411 11.1695 11.2411C11.3856 11.2411 11.5678 11.1031 11.631 10.912H15.7319C15.786 11.074 15.9268 11.199 16.0999 11.2323V13.1855C15.8976 13.2428 15.7494 13.4261 15.7494 13.6427C15.7494 13.9056 15.9661 14.1191 16.2343 14.1191C16.2757 14.1191 16.3155 14.1139 16.3532 14.1045L17.2279 15.4673C17.1583 15.5495 17.1158 15.6563 17.1158 15.7719C17.1158 15.8604 17.1403 15.9432 17.1833 16.0145C16.9018 16.3249 16.6187 16.6326 16.3431 16.9482C16.2959 16.9336 16.2465 16.9253 16.1944 16.9253C15.9262 16.9253 15.708 17.1388 15.708 17.4017C15.708 17.6215 15.8609 17.8074 16.068 17.8615V19.7012C15.8901 19.7715 15.7643 19.9428 15.7643 20.1428C15.7643 20.3464 15.8949 20.5208 16.0792 20.5885C16.0383 21.3946 15.8168 22.1788 15.3166 22.699C15.2417 22.6526 15.153 22.6261 15.0579 22.6261C14.7898 22.6261 14.5725 22.839 14.5725 23.102C14.5725 23.2514 14.6426 23.3847 14.7531 23.4727C13.6899 24.2241 12.2529 24.5449 11.1695 24.5449C9.21728 24.5449 6.12063 23.5066 6.12063 20.7744ZM11.3192 10.3109L11.3298 5.94994C11.3606 5.93953 11.3893 5.92703 11.4158 5.91089L13.4275 8.23276C13.3819 8.30514 13.3553 8.39106 13.3553 8.4827C13.3553 8.54883 13.3691 8.61184 13.3941 8.6686L11.419 10.3557C11.3877 10.337 11.3542 10.3224 11.3192 10.3109ZM18.6987 7.84361C18.7019 7.82382 18.7034 7.80403 18.704 7.78372L21.9382 6.84644C21.9982 6.93287 22.0869 6.99848 22.1904 7.03129L22.1894 9.98739C22.1134 10.0119 22.0444 10.054 21.9897 10.1092L18.6987 7.84361ZM18.5619 8.10815L21.8577 10.3769C21.8545 10.3977 21.8535 10.4191 21.8535 10.441C21.8535 10.6524 21.9947 10.8325 22.1896 10.894L22.1886 14.9582L21.3702 13.018C21.4531 12.9331 21.504 12.8175 21.504 12.6899C21.504 12.427 21.2868 12.214 21.0192 12.214C20.9751 12.214 20.9337 12.2197 20.8928 12.2301L19.8848 10.706C19.957 10.6227 20.0011 10.5154 20.0011 10.3972C20.0011 10.1348 19.7834 9.92129 19.5157 9.92129C19.2736 9.92129 19.0739 10.0947 19.0362 10.3212L16.6389 10.5753C16.6283 10.5508 16.615 10.5274 16.6002 10.505L18.1822 8.24562C18.1939 8.24667 18.2061 8.24719 18.2194 8.24719C18.3527 8.24719 18.4738 8.19407 18.5619 8.10815ZM11.616 10.5769L13.5915 8.89185C13.6654 8.93507 13.7509 8.96006 13.8422 8.96006C13.9219 8.96006 13.9973 8.94079 14.0642 8.90695L15.7588 10.5561C15.7482 10.5758 15.7392 10.5967 15.7323 10.6185H11.6314C11.6271 10.6045 11.6218 10.5904 11.616 10.5769ZM16.3997 13.1955L16.4002 11.1965C16.5346 11.1351 16.635 11.0143 16.6679 10.8685L19.0821 10.6128C19.1108 10.6685 19.1501 10.718 19.1979 10.7581L18.6095 12.2171C18.5978 12.2161 18.5845 12.2156 18.5718 12.2156C18.3041 12.2156 18.0869 12.4285 18.0869 12.6915C18.0869 12.705 18.0874 12.7186 18.088 12.7321L16.6042 13.3341C16.5495 13.2726 16.4794 13.2242 16.3997 13.1955ZM19.6306 10.8601L20.6428 12.39C20.6072 12.4321 20.5796 12.4801 20.561 12.5326C20.0522 12.5259 19.5429 12.5368 19.0342 12.5425C19.0055 12.4577 18.9534 12.3832 18.8855 12.327L19.4734 10.871C19.4872 10.8721 19.502 10.8731 19.5164 10.8731C19.5551 10.8731 19.5934 10.869 19.6306 10.8601ZM18.9345 13.0061C18.978 12.9582 19.0115 12.9015 19.0333 12.8395L20.5574 12.8374C20.6206 13.0275 20.8033 13.166 21.0195 13.166C21.0481 13.166 21.0773 13.1634 21.105 13.1582L22.0237 15.3353C21.9201 15.4222 21.8538 15.5524 21.8538 15.6972C21.8538 15.8154 21.8968 15.9232 21.9701 16.006L21.0869 17.4135C21.0694 17.4093 21.0524 17.4067 21.0349 17.4046L20.089 15.0557C20.1947 14.9677 20.2622 14.8375 20.2622 14.6912C20.2622 14.4282 20.045 14.2152 19.7768 14.2152C19.7406 14.2152 19.7051 14.2189 19.67 14.2267L18.9345 13.0061ZM16.6072 13.9478C16.6773 13.8651 16.7204 13.7588 16.7204 13.6427C16.7204 13.6302 16.7198 13.6177 16.7188 13.6047L18.2047 13.0017C18.2934 13.1027 18.4256 13.1668 18.5717 13.1668C18.6083 13.1668 18.6428 13.1631 18.6763 13.1558L19.4129 14.3769C19.338 14.4613 19.2918 14.5706 19.2918 14.692C19.2918 14.7169 19.2939 14.7414 19.2971 14.7654L17.945 15.4366C17.8579 15.3496 17.7352 15.296 17.6009 15.296C17.56 15.296 17.5196 15.3012 17.4814 15.3106L16.6072 13.9478ZM18.0866 15.7715C18.0866 15.746 18.084 15.722 18.0808 15.6981L19.4323 15.0269C19.4573 15.0513 19.4844 15.0732 19.5147 15.0919L19.1918 16.237C18.9469 16.2469 18.7483 16.4354 18.7287 16.6728L16.6118 17.1602C16.6065 17.1498 16.6007 17.1404 16.5943 17.1316C16.871 16.8264 17.1493 16.5234 17.4191 16.213C17.4754 16.2354 17.537 16.2474 17.6007 16.2474C17.8684 16.2474 18.0866 16.0344 18.0866 15.7715ZM19.6981 16.7125C19.6981 16.5464 19.6115 16.4006 19.4798 16.3147L19.8043 15.1665C19.8069 15.1665 19.8091 15.166 19.8112 15.166L20.7352 17.4608C20.5871 17.5426 20.4867 17.6983 20.4867 17.8774C20.4867 17.994 20.5302 18.1018 20.6025 18.1846L19.9068 19.2828C19.8654 19.2713 19.8223 19.2656 19.7772 19.2656C19.6327 19.2656 19.5032 19.3271 19.4145 19.4255L18.3279 18.898C18.3316 18.8761 18.3327 18.8522 18.3327 18.8287C18.3327 18.7126 18.2913 18.6074 18.2212 18.5246L19.0921 17.1734C19.1309 17.1838 19.1712 17.1885 19.2127 17.1885C19.4809 17.1885 19.6981 16.975 19.6981 16.7125ZM16.6375 17.5937C16.6582 17.5479 16.672 17.4984 16.6768 17.4469L18.7968 16.959C18.809 16.9788 18.8234 16.9986 18.8393 17.0168L17.9673 18.3675C17.929 18.3581 17.8887 18.3529 17.8473 18.3529C17.7564 18.3529 17.6715 18.3774 17.5987 18.4201L16.6375 17.5937ZM16.3673 19.6806V17.845C16.3917 17.8367 16.4151 17.8258 16.4368 17.8127L17.4013 18.6412C17.3752 18.6985 17.3614 18.7625 17.3614 18.8292C17.3614 18.8979 17.3763 18.9625 17.4034 19.0213L16.5505 19.7691C16.4974 19.7279 16.4353 19.6967 16.3673 19.6806ZM20.262 19.7104C20.2545 19.6099 20.2163 19.5183 20.1563 19.4448L20.8557 18.3394C20.8934 18.3482 20.9322 18.3534 20.9725 18.3534C21.0086 18.3534 21.0447 18.3487 21.0793 18.342L21.9247 19.7437C21.852 19.7974 21.7946 19.8697 21.7617 19.9546L20.262 19.7104ZM18.5795 21.1448C18.5747 20.9182 18.4085 20.7297 18.1887 20.687L18.0431 19.265C18.1005 19.24 18.1515 19.2046 18.1945 19.1619L19.2943 19.6946C19.2922 19.7097 19.2917 19.7258 19.2917 19.7419C19.2917 20.0049 19.5089 20.2168 19.7771 20.2168C19.9502 20.2168 20.1021 20.1283 20.1876 19.9955L21.7463 20.2486C21.7611 20.3001 21.7829 20.3475 21.8127 20.3902L20.57 21.4254C20.4866 21.3582 20.3793 21.3176 20.2625 21.3176C20.0968 21.3176 19.9513 21.3989 19.8626 21.5238L18.5795 21.1448ZM16.497 20.5527C16.6399 20.4699 16.7355 20.3173 16.7355 20.1428C16.7355 20.0986 16.7302 20.0564 16.7185 20.0158L17.6038 19.241C17.6468 19.266 17.6946 19.2842 17.745 19.2951L17.8921 20.7219C17.7248 20.7974 17.608 20.963 17.608 21.1546C17.608 21.4176 17.8257 21.6316 18.0939 21.6316C18.2591 21.6316 18.4041 21.5503 18.4917 21.4269L19.7774 21.806C19.7801 21.92 19.8236 22.0247 19.8953 22.1054L19.1391 23.3275C19.112 23.3239 19.0854 23.3208 19.0578 23.3208C18.9256 23.3208 18.8066 23.3728 18.7185 23.4567L17.5995 22.8402C17.6048 22.81 17.608 22.7782 17.608 22.7469C17.608 22.4845 17.3908 22.271 17.1226 22.271H17.1125L16.497 20.5527ZM20.7047 21.9903C20.7324 21.9304 20.7478 21.8643 20.7478 21.794C20.7478 21.7534 20.7424 21.7127 20.7324 21.6758L22.0547 20.5745C22.1052 20.5916 22.1588 20.6005 22.2146 20.6005H22.2231C22.2071 21.3003 22.1121 22.0017 21.923 22.6771C21.8736 22.6599 21.821 22.6511 21.7663 22.6511C21.6761 22.6511 21.5911 22.675 21.5183 22.7177L20.7047 21.9903ZM16.3231 21.1535C16.33 21.1077 16.3375 21.0598 16.3433 21.0098L16.8298 22.3673C16.7347 22.4381 16.6673 22.5417 16.6449 22.6615L15.5701 22.8552C15.9907 22.3787 16.2233 21.7695 16.3231 21.1535ZM20.5011 22.207L21.3179 22.9454C21.294 23.0011 21.2807 23.062 21.2807 23.1261C21.2807 23.15 21.2828 23.1735 21.286 23.1964L19.4793 23.5609C19.4586 23.525 19.4331 23.4911 19.4044 23.4625L20.1511 22.256C20.1862 22.2648 20.2239 22.2685 20.2621 22.2685C20.3487 22.2685 20.4304 22.2466 20.5011 22.207ZM17.3821 24.3616L17.303 23.1884C17.3588 23.166 17.4087 23.1348 17.4517 23.0957L18.5781 23.7164C18.5738 23.7424 18.5707 23.7695 18.5707 23.7971C18.5707 23.8393 18.577 23.8809 18.5877 23.9195L17.6413 24.5188C17.5749 24.4418 17.4846 24.386 17.3821 24.3616ZM19.5027 23.9861C19.5218 23.9429 19.5351 23.8976 19.5404 23.8491L21.4289 23.4685C21.4788 23.5159 21.5393 23.5534 21.6063 23.5763C21.4634 24.0028 21.2276 24.4001 20.9456 24.7651C20.8851 24.7391 20.8182 24.7245 20.7486 24.7245C20.6588 24.7245 20.5744 24.7484 20.5022 24.7901L19.5027 23.9861Z" fill="white"/>
</mask>
<g mask="url(#mask0_702_8416)">
<path fill-rule="evenodd" clip-rule="evenodd" d="M21.7786 -0.186012H17.9645C17.9013 -0.376594 17.7176 -0.515625 17.502 -0.515625C17.2338 -0.515625 17.0171 -0.301611 17.0171 -0.0391701C17.0171 0.223791 17.2338 0.437285 17.502 0.437285C17.5466 0.437285 17.5896 0.431557 17.6305 0.421143L19.5248 3.26842C19.4855 3.3158 19.4558 3.371 19.4372 3.4314L15.6416 3.52201C15.6321 3.47202 15.6135 3.42463 15.5891 3.38193C16.8827 2.26916 17.3766 0.986119 17.3782 0.981433C15.5657 0.000404418 13.382 -0.515625 11.0708 -0.515625C5.0543 -0.515625 -0.0986328 2.97682 -0.0986328 9.09262V19.8756C-0.0986328 25.9919 5.0543 29.4844 11.0708 29.4844C15.0469 29.4844 18.6454 27.9597 20.6289 25.1603C20.6363 25.1603 20.6422 25.1603 20.6496 25.1603C20.9178 25.1603 21.1345 24.9474 21.1345 24.6849C21.1345 24.599 21.1116 24.5188 21.0713 24.4491C21.3979 24.033 21.6661 23.5664 21.8206 23.0629C22.0134 23.0004 22.1536 22.8223 22.1536 22.6114C22.1536 22.5182 22.127 22.4318 22.0798 22.3589C22.3092 21.5893 22.4191 20.7806 22.4271 19.9751C22.5338 19.8876 22.6018 19.7558 22.6018 19.609C22.6018 19.3466 22.3846 19.1331 22.1169 19.1331L21.238 17.6761C21.3129 17.5917 21.3591 17.4819 21.3591 17.3621C21.3591 17.2439 21.3156 17.1361 21.2433 17.0528L22.1265 15.6443C22.1626 15.6531 22.2008 15.6578 22.2407 15.6578C22.5089 15.6578 22.7261 15.4448 22.7261 15.1819C22.7261 14.9705 22.5853 14.7908 22.3904 14.7289V10.3788C22.5853 10.3163 22.7261 10.1372 22.7261 9.92577C22.7261 9.71384 22.5853 9.53471 22.3904 9.47275V6.5156C22.5853 6.45364 22.7261 6.27399 22.7261 6.06258C22.7261 5.85117 22.5853 5.67152 22.3904 5.60955V0.413853C22.5853 0.351888 22.7261 0.172761 22.7261 -0.0391701C22.7261 -0.301611 22.5089 -0.515625 22.2407 -0.515625C22.0245 -0.515625 21.8418 -0.376594 21.7786 -0.186012ZM17.8798 0.258771C17.9169 0.213989 17.9461 0.161918 17.9647 0.106201L21.7788 0.106722C21.798 0.164521 21.8277 0.217634 21.8665 0.263457L20.0247 3.105C19.986 3.09563 19.9445 3.09042 19.9031 3.09042C19.8585 3.09042 19.816 3.09615 19.7762 3.10657L17.8798 0.258771ZM20.3253 3.80128C20.3646 3.73203 20.3875 3.65184 20.3875 3.56696C20.3875 3.45188 20.346 3.34566 20.277 3.2639L22.09 0.465576V5.60921C22.0725 5.61493 22.0545 5.6217 22.0369 5.62951L20.3253 3.80128ZM15.5679 3.87742C15.5806 3.85816 15.5928 3.83785 15.6029 3.8165L19.4447 3.72485C19.5105 3.91023 19.6905 4.04301 19.9024 4.04301C19.9752 4.04301 20.0432 4.02739 20.1053 3.99927L21.8169 5.82802C21.7792 5.89363 21.7564 5.96914 21.7548 6.04933L18.5211 6.98662C18.433 6.86165 18.2869 6.77937 18.1207 6.77937C18.0511 6.77937 17.9853 6.79395 17.9258 6.81947L15.5679 3.87742ZM11.7227 4.96063C13.001 4.85805 14.0207 4.45918 14.822 3.95044C14.8406 3.96919 14.8608 3.98481 14.8815 3.99991L13.7408 7.49183C13.6765 7.49235 13.6144 7.50485 13.5581 7.52776L11.5172 5.1736C11.5422 5.1158 11.556 5.05227 11.556 4.98614C11.556 4.97781 11.5554 4.96948 11.5554 4.96115C11.5778 4.96271 11.599 4.96479 11.6218 4.96636C11.6558 4.96479 11.6893 4.96271 11.7227 4.96063ZM14.1757 8.18284C14.2091 8.11827 14.2277 8.04537 14.2277 7.96831C14.2277 7.80897 14.1486 7.66838 14.0259 7.58142L15.1666 4.08897C15.225 4.08897 15.2803 4.07856 15.3318 4.05981L17.7014 7.0154C17.6589 7.08621 17.635 7.16849 17.635 7.25649C17.635 7.39552 17.6966 7.52101 17.7938 7.60849L16.2691 9.80487C16.2155 9.78456 16.1565 9.77363 16.0955 9.77363C16.0131 9.77363 15.9351 9.79342 15.8671 9.82882L14.1757 8.18284ZM6.02186 20.2588V8.71086C6.02186 6.1958 8.64586 5.11635 10.5858 4.96118C10.5853 4.96951 10.5848 4.97784 10.5848 4.98618C10.5848 5.19811 10.726 5.37775 10.9209 5.43972V9.79655C10.726 9.85851 10.5848 10.0382 10.5848 10.2496C10.5848 10.512 10.8025 10.7255 11.0707 10.7255C11.2869 10.7255 11.469 10.5875 11.5322 10.3964H15.6331C15.6873 10.5584 15.828 10.6833 16.0011 10.7167V12.6699C15.7988 12.7271 15.6506 12.9104 15.6506 13.127C15.6506 13.39 15.8673 13.6035 16.1355 13.6035C16.1769 13.6035 16.2167 13.5983 16.2544 13.5889L17.1291 14.9516C17.0595 15.0339 17.0171 15.1407 17.0171 15.2563C17.0171 15.3448 17.0415 15.4276 17.0845 15.4989C16.803 15.8093 16.52 16.117 16.2444 16.4326C16.1971 16.418 16.1477 16.4096 16.0957 16.4096C15.8275 16.4096 15.6092 16.6231 15.6092 16.8861C15.6092 17.1058 15.7621 17.2917 15.9693 17.3459V19.1856C15.7914 19.2559 15.6655 19.4272 15.6655 19.6271C15.6655 19.8307 15.7961 20.0052 15.9804 20.0729C15.9395 20.8789 15.7181 21.6631 15.2178 22.1833C15.1429 22.137 15.0542 22.1104 14.9592 22.1104C14.691 22.1104 14.4738 22.3234 14.4738 22.5864C14.4738 22.7358 14.5439 22.8691 14.6543 22.9571C13.5912 23.7085 12.1541 24.0293 11.0707 24.0293C9.11851 24.0293 6.02186 22.991 6.02186 20.2588ZM11.2207 9.79629L11.2313 5.43529C11.2621 5.42488 11.2908 5.41238 11.3173 5.39624L13.329 7.71811C13.2833 7.79049 13.2568 7.87641 13.2568 7.96806C13.2568 8.03419 13.2706 8.09719 13.2955 8.15395L11.3205 9.84107C11.2892 9.82232 11.2557 9.80774 11.2207 9.79629ZM18.6001 7.32871C18.6033 7.30893 18.6049 7.28914 18.6055 7.26883L21.8397 6.33154C21.8997 6.41798 21.9883 6.48359 22.0919 6.5164L22.0908 9.4725C22.0149 9.49697 21.9459 9.53915 21.8912 9.59435L18.6001 7.32871ZM18.4637 7.59351L21.7595 9.86226C21.7563 9.88309 21.7552 9.90444 21.7552 9.92631C21.7552 10.1377 21.8965 10.3179 22.0914 10.3793L22.0903 14.4435L21.2719 12.5033C21.3548 12.4185 21.4058 12.3029 21.4058 12.1753C21.4058 11.9123 21.1886 11.6994 20.9209 11.6994C20.8768 11.6994 20.8354 11.7051 20.7945 11.7155L19.7865 10.1914C19.8588 10.108 19.9028 10.0008 19.9028 9.88257C19.9028 9.62013 19.6851 9.40664 19.4174 9.40664C19.1753 9.40664 18.9756 9.58004 18.9379 9.80655L16.5407 10.0607C16.53 10.0362 16.5168 10.0128 16.5019 9.99036L18.0839 7.73098C18.0956 7.73202 18.1078 7.73254 18.1211 7.73254C18.2544 7.73254 18.3755 7.67942 18.4637 7.59351ZM11.5162 10.06L13.4918 8.375C13.5656 8.41822 13.6511 8.44321 13.7425 8.44321C13.8221 8.44321 13.8975 8.42395 13.9644 8.3901L15.6591 10.0392C15.6485 10.059 15.6394 10.0798 15.6325 10.1017H11.5316C11.5274 10.0876 11.5221 10.0736 11.5162 10.06ZM16.3012 12.6789L16.3017 10.6799C16.4361 10.6185 16.5365 10.4977 16.5694 10.3519L18.9836 10.0962C19.0123 10.1519 19.0516 10.2014 19.0994 10.2415L18.511 11.7005C18.4993 11.6995 18.486 11.699 18.4733 11.699C18.2056 11.699 17.9884 11.9119 17.9884 12.1749C17.9884 12.1884 17.9889 12.202 17.9895 12.2155L16.5057 12.8175C16.451 12.756 16.3809 12.7076 16.3012 12.6789ZM19.532 10.3445L20.5442 11.8743C20.5087 11.9165 20.4811 11.9644 20.4625 12.017C19.9537 12.0103 19.4444 12.0212 18.9356 12.0269C18.907 11.942 18.8549 11.8676 18.7869 11.8113L19.3748 10.3554C19.3886 10.3565 19.4035 10.3575 19.4179 10.3575C19.4566 10.3575 19.4949 10.3533 19.532 10.3445ZM18.8352 12.4912C18.8788 12.4433 18.9122 12.3866 18.934 12.3246L20.4582 12.3225C20.5214 12.5126 20.7041 12.6511 20.9202 12.6511C20.9489 12.6511 20.9781 12.6485 21.0057 12.6433L21.9244 14.8204C21.8209 14.9073 21.7545 15.0375 21.7545 15.1823C21.7545 15.3005 21.7975 15.4083 21.8708 15.4911L20.9876 16.8986C20.9701 16.8944 20.9531 16.8918 20.9356 16.8897L19.9898 14.5408C20.0955 14.4528 20.1629 14.3226 20.1629 14.1763C20.1629 13.9133 19.9457 13.7003 19.6775 13.7003C19.6414 13.7003 19.6058 13.704 19.5708 13.7118L18.8352 12.4912ZM16.5075 13.4322C16.5776 13.3494 16.6206 13.2432 16.6206 13.1271C16.6206 13.1146 16.6201 13.1021 16.619 13.0891L18.105 12.4861C18.1936 12.5871 18.3259 12.6512 18.4719 12.6512C18.5086 12.6512 18.5431 12.6475 18.5765 12.6402L19.3131 13.8613C19.2382 13.9457 19.192 14.055 19.192 14.1763C19.192 14.2013 19.1942 14.2258 19.1974 14.2497L17.8453 14.921C17.7582 14.834 17.6355 14.7804 17.5011 14.7804C17.4602 14.7804 17.4199 14.7856 17.3816 14.7949L16.5075 13.4322ZM17.9881 15.2566C17.9881 15.2311 17.9854 15.2071 17.9823 15.1832L19.3338 14.512C19.3588 14.5364 19.3859 14.5583 19.4161 14.5771L19.0932 15.7221C18.8484 15.732 18.6498 15.9205 18.6302 16.1579L16.5133 16.6453C16.508 16.6349 16.5022 16.6255 16.4958 16.6167C16.7725 16.3116 17.0508 16.0085 17.3205 15.6982C17.3768 15.7205 17.4384 15.7325 17.5022 15.7325C17.7698 15.7325 17.9881 15.5195 17.9881 15.2566ZM19.5983 16.1976C19.5983 16.0315 19.5118 15.8857 19.3801 15.7998L19.7045 14.6516C19.7072 14.6516 19.7093 14.6511 19.7114 14.6511L20.6355 16.9459C20.4873 17.0277 20.387 17.1834 20.387 17.3625C20.387 17.4791 20.4305 17.5869 20.5027 17.6697L19.807 18.7679C19.7656 18.7564 19.7226 18.7507 19.6775 18.7507C19.533 18.7507 19.4034 18.8122 19.3147 18.9106L18.2282 18.3831C18.2319 18.3612 18.233 18.3373 18.233 18.3138C18.233 18.1977 18.1915 18.0925 18.1214 18.0097L18.9924 16.6585C19.0311 16.6689 19.0715 16.6736 19.1129 16.6736C19.3811 16.6736 19.5983 16.4601 19.5983 16.1976ZM16.539 17.0781C16.5597 17.0323 16.5735 16.9828 16.5783 16.9313L18.6983 16.4434C18.7105 16.4631 18.7248 16.4829 18.7408 16.5012L17.8688 17.8519C17.8305 17.8425 17.7902 17.8373 17.7487 17.8373C17.6579 17.8373 17.573 17.8618 17.5002 17.9045L16.539 17.0781ZM16.2688 19.1649V17.3294C16.2932 17.3211 16.3166 17.3101 16.3383 17.2971L17.3027 18.1256C17.2767 18.1829 17.2629 18.2469 17.2629 18.3136C17.2629 18.3823 17.2778 18.4469 17.3049 18.5057L16.452 19.2534C16.3989 19.2123 16.3367 19.1811 16.2688 19.1649ZM20.1627 19.1945C20.1553 19.094 20.117 19.0024 20.057 18.929L20.7564 17.8235C20.7941 17.8323 20.8329 17.8375 20.8733 17.8375C20.9094 17.8375 20.9455 17.8329 20.98 17.8261L21.8255 19.2279C21.7527 19.2815 21.6954 19.3539 21.6624 19.4387L20.1627 19.1945ZM18.48 20.6301C18.4752 20.4036 18.309 20.2151 18.0892 20.1724L17.9436 18.7503C18.001 18.7253 18.052 18.6899 18.095 18.6472L19.1948 19.1799C19.1927 19.195 19.1922 19.2112 19.1922 19.2273C19.1922 19.4903 19.4094 19.7022 19.6776 19.7022C19.8507 19.7022 20.0026 19.6137 20.0881 19.4809L21.6468 19.734C21.6616 19.7855 21.6834 19.8329 21.7132 19.8756L20.4705 20.9108C20.3871 20.8436 20.2798 20.803 20.163 20.803C19.9973 20.803 19.8518 20.8842 19.7631 21.0092L18.48 20.6301ZM16.3983 20.037C16.5411 19.9542 16.6367 19.8017 16.6367 19.6272C16.6367 19.583 16.6314 19.5408 16.6197 19.5002L17.505 18.7253C17.548 18.7503 17.5958 18.7686 17.6463 18.7795L17.7934 20.2063C17.6261 20.2818 17.5092 20.4473 17.5092 20.639C17.5092 20.9019 17.727 21.1159 17.9952 21.1159C18.1603 21.1159 18.3053 21.0347 18.3929 20.9113L19.6786 21.2904C19.6813 21.4044 19.7249 21.5091 19.7965 21.5898L19.0403 22.8119C19.0132 22.8083 18.9867 22.8051 18.9591 22.8051C18.8268 22.8051 18.7079 22.8572 18.6197 22.9411L17.5007 22.3245C17.5061 22.2943 17.5092 22.2626 17.5092 22.2313C17.5092 21.9689 17.292 21.7554 17.0238 21.7554H17.0138L16.3983 20.037ZM20.6065 21.4749C20.6341 21.415 20.6495 21.3489 20.6495 21.2786C20.6495 21.238 20.6442 21.1974 20.6341 21.1604L21.9564 20.0591C22.0069 20.0763 22.0605 20.0851 22.1163 20.0851H22.1248C22.1088 20.785 22.0138 21.4864 21.8247 22.1617C21.7753 22.1445 21.7228 22.1357 21.6681 22.1357C21.5778 22.1357 21.4928 22.1596 21.42 22.2023L20.6065 21.4749ZM16.2246 20.6376C16.2315 20.5918 16.2389 20.5439 16.2448 20.4939L16.7312 21.8514C16.6362 21.9222 16.5687 22.0258 16.5464 22.1456L15.4715 22.3393C15.8922 21.8629 16.1248 21.2536 16.2246 20.6376ZM20.4026 21.6924L21.2193 22.4308C21.1954 22.4865 21.1822 22.5474 21.1822 22.6114C21.1822 22.6354 21.1843 22.6588 21.1875 22.6817L19.3808 23.0462C19.3601 23.0103 19.3346 22.9765 19.3059 22.9478L20.0526 21.7413C20.0876 21.7502 20.1253 21.7538 20.1636 21.7538C20.2501 21.7538 20.3319 21.732 20.4026 21.6924ZM17.2836 23.8459L17.2045 22.6728C17.2602 22.6504 17.3102 22.6191 17.3532 22.5801L18.4796 23.2008C18.4753 23.2268 18.4721 23.2539 18.4721 23.2815C18.4721 23.3237 18.4785 23.3653 18.4891 23.4039L17.5428 24.0032C17.4764 23.9261 17.3861 23.8704 17.2836 23.8459ZM19.4042 23.4714C19.4233 23.4282 19.4366 23.3829 19.4419 23.3345L21.3304 22.9539C21.3803 23.0012 21.4408 23.0387 21.5077 23.0616C21.3649 23.4881 21.1291 23.8854 20.8471 24.2504C20.7865 24.2244 20.7196 24.2098 20.6501 24.2098C20.5603 24.2098 20.4759 24.2338 20.4037 24.2754L19.4042 23.4714Z" fill="url(#paint0_linear_702_8416)"/>
</g>
<defs>
<linearGradient id="paint0_linear_702_8416" x1="9.83521" y1="-1.51623" x2="-4.03055" y2="15.2926" gradientUnits="userSpaceOnUse">
<stop stop-color="#455B99"/>
<stop offset="0.512379" stop-color="#5C90A7"/>
<stop offset="1" stop-color="#72C2B3"/>
</linearGradient>
</defs>
</svg>
