<svg width="32" height="32" viewBox="0 0 32 32" fill="none" xmlns="http://www.w3.org/2000/svg">
<path d="M5.33301 28C4.2219 28 3.27745 27.6111 2.49967 26.8333C1.7219 26.0556 1.33301 25.1111 1.33301 24C1.33301 22.8889 1.7219 21.9444 2.49967 21.1667C3.27745 20.3889 4.2219 20 5.33301 20C5.57745 20 5.8219 20.0222 6.06634 20.0667C6.31079 20.1111 6.55523 20.1778 6.79967 20.2667L12.133 12.9667C11.6886 12.4778 11.333 11.9278 11.0663 11.3167C10.7997 10.7056 10.6663 10.0444 10.6663 9.33333C10.6663 7.86667 11.1886 6.61111 12.233 5.56667C13.2775 4.52222 14.533 4 15.9997 4C17.4663 4 18.7219 4.52222 19.7663 5.56667C20.8108 6.61111 21.333 7.86667 21.333 9.33333C21.333 10.0444 21.1997 10.7056 20.933 11.3167C20.6663 11.9278 20.3108 12.4778 19.8663 12.9667L25.1997 20.3C25.4441 20.1889 25.683 20.1111 25.9163 20.0667C26.1497 20.0222 26.3997 20 26.6663 20C27.7775 20 28.7219 20.3889 29.4997 21.1667C30.2775 21.9444 30.6663 22.8889 30.6663 24C30.6663 25.1111 30.2775 26.0556 29.4997 26.8333C28.7219 27.6111 27.7775 28 26.6663 28C25.5552 28 24.6108 27.6111 23.833 26.8333C23.0552 26.0556 22.6663 25.1111 22.6663 24C22.6663 23.5111 22.7497 23.0556 22.9163 22.6333C23.083 22.2111 23.3108 21.8222 23.5997 21.4667L18.2663 14.1667C18.0663 14.2778 17.8608 14.3611 17.6497 14.4167C17.4386 14.4722 17.2219 14.5222 16.9997 14.5667V20.1333C17.8663 20.3556 18.583 20.8222 19.1497 21.5333C19.7163 22.2444 19.9997 23.0667 19.9997 24C19.9997 25.1111 19.6108 26.0556 18.833 26.8333C18.0552 27.6111 17.1108 28 15.9997 28C14.8886 28 13.9441 27.6111 13.1663 26.8333C12.3886 26.0556 11.9997 25.1111 11.9997 24C11.9997 23.0667 12.283 22.2444 12.8497 21.5333C13.4163 20.8222 14.133 20.3556 14.9997 20.1333V14.5667C14.7775 14.5222 14.5608 14.4722 14.3497 14.4167C14.1386 14.3611 13.933 14.2778 13.733 14.1667L8.39967 21.4667C8.68856 21.8222 8.91634 22.2111 9.08301 22.6333C9.24967 23.0556 9.33301 23.5111 9.33301 24C9.33301 25.1111 8.94412 26.0556 8.16634 26.8333C7.38856 27.6111 6.44412 28 5.33301 28ZM5.33301 26C5.91079 26 6.38856 25.8056 6.76634 25.4167C7.14412 25.0278 7.33301 24.5556 7.33301 24C7.33301 23.4222 7.14412 22.9444 6.76634 22.5667C6.38856 22.1889 5.91079 22 5.33301 22C4.77745 22 4.30523 22.1889 3.91634 22.5667C3.52745 22.9444 3.33301 23.4222 3.33301 24C3.33301 24.5556 3.52745 25.0278 3.91634 25.4167C4.30523 25.8056 4.77745 26 5.33301 26ZM15.9997 26C16.5775 26 17.0552 25.8056 17.433 25.4167C17.8108 25.0278 17.9997 24.5556 17.9997 24C17.9997 23.4222 17.8108 22.9444 17.433 22.5667C17.0552 22.1889 16.5775 22 15.9997 22C15.4441 22 14.9719 22.1889 14.583 22.5667C14.1941 22.9444 13.9997 23.4222 13.9997 24C13.9997 24.5556 14.1941 25.0278 14.583 25.4167C14.9719 25.8056 15.4441 26 15.9997 26ZM26.6663 26C27.2441 26 27.7219 25.8056 28.0997 25.4167C28.4775 25.0278 28.6663 24.5556 28.6663 24C28.6663 23.4222 28.4775 22.9444 28.0997 22.5667C27.7219 22.1889 27.2441 22 26.6663 22C26.1108 22 25.6386 22.1889 25.2497 22.5667C24.8608 22.9444 24.6663 23.4222 24.6663 24C24.6663 24.5556 24.8608 25.0278 25.2497 25.4167C25.6386 25.8056 26.1108 26 26.6663 26ZM15.9997 12.6667C16.933 12.6667 17.7219 12.3444 18.3663 11.7C19.0108 11.0556 19.333 10.2667 19.333 9.33333C19.333 8.4 19.0108 7.61111 18.3663 6.96667C17.7219 6.32222 16.933 6 15.9997 6C15.0663 6 14.2775 6.32222 13.633 6.96667C12.9886 7.61111 12.6663 8.4 12.6663 9.33333C12.6663 10.2667 12.9886 11.0556 13.633 11.7C14.2775 12.3444 15.0663 12.6667 15.9997 12.6667Z" fill="white" fill-opacity="0.75"/>
</svg>
