<svg width="20" height="20" viewBox="0 0 20 20" fill="none" xmlns="http://www.w3.org/2000/svg">
<path d="M3.75 16.2493H4.66667L13.8958 7.02018L12.9792 6.10352L3.75 15.3327V16.2493ZM16.5417 6.12435L13.875 3.45768L14.75 2.58268C14.9861 2.34657 15.2778 2.22852 15.625 2.22852C15.9722 2.22852 16.2639 2.34657 16.5 2.58268L17.4167 3.49935C17.6528 3.73546 17.7708 4.02713 17.7708 4.37435C17.7708 4.72157 17.6528 5.01324 17.4167 5.24935L16.5417 6.12435ZM15.6667 6.99935L5.16667 17.4993H2.5V14.8327L13 4.33268L15.6667 6.99935ZM13.4375 6.56185L12.9792 6.10352L13.8958 7.02018L13.4375 6.56185Z" fill="white" fill-opacity="0.75"/>
</svg>
