<svg width="32" height="32" viewBox="0 0 32 32" fill="none" xmlns="http://www.w3.org/2000/svg">
<g clip-path="url(#clip0_751_8830)">
<path d="M2.66699 28V4H15.667V9.5H29.3337V20.8333H27.3337V11.5H15.667V15H18.3337V17H15.667V20.5H18.3337V22.5H15.667V26H22.167V28H2.66699ZM4.66699 26H8.16699V22.5H4.66699V26ZM4.66699 20.5H8.16699V17H4.66699V20.5ZM4.66699 15H8.16699V11.5H4.66699V15ZM4.66699 9.5H8.16699V6H4.66699V9.5ZM10.167 26H13.667V22.5H10.167V26ZM10.167 20.5H13.667V17H10.167V20.5ZM10.167 15H13.667V11.5H10.167V15ZM10.167 9.5H13.667V6H10.167V9.5ZM27.1003 30.6667V27.7667H24.167V25.7667H27.1003V22.8333H29.1003V25.7667H32.0003V27.7667H29.1003V30.6667H27.1003ZM21.8337 17V15H23.8337V17H21.8337ZM21.8337 22.5V20.5H23.8337V22.5H21.8337Z" fill="white" fill-opacity="0.75"/>
</g>
<defs>
<clipPath id="clip0_751_8830">
<rect width="32" height="32" fill="white"/>
</clipPath>
</defs>
</svg>
