<svg width="32" height="32" viewBox="0 0 32 32" fill="none" xmlns="http://www.w3.org/2000/svg">
<path d="M12.8447 4.6875V6.83653H14.9559V4.6875H12.8447Z" fill="white" fill-opacity="0.75"/>
<path d="M17.0488 5.00391V7.15293H19.16V5.00391H17.0488Z" fill="white" fill-opacity="0.75"/>
<path d="M8.18164 7.77148V9.92051H10.2928V7.77148H8.18164Z" fill="white" fill-opacity="0.75"/>
<path d="M14.6055 7.77148V9.92051H16.7167V7.77148H14.6055Z" fill="white" fill-opacity="0.75"/>
<path d="M8.99609 11.3555V13.5045H11.1073V11.3555H8.99609Z" fill="white" fill-opacity="0.75"/>
<path d="M16.3652 11.3555V13.5045H18.4764V11.3555H16.3652Z" fill="white" fill-opacity="0.75"/>
<path d="M20.2354 10.6914V12.8404H22.3465V10.6914H20.2354Z" fill="white" fill-opacity="0.75"/>
<path d="M5.69434 14.9355V17.0858H7.80552V14.9355H5.69434Z" fill="white" fill-opacity="0.75"/>
<path d="M8.97559 14.9355V17.0858H11.0868V14.9355H8.97559Z" fill="white" fill-opacity="0.75"/>
<path d="M8.97559 18.5176V20.6666H11.0868V18.5176H8.97559Z" fill="white" fill-opacity="0.75"/>
<path d="M11.79 18.5176V20.6666H13.9012V18.5176H11.79Z" fill="white" fill-opacity="0.75"/>
<path d="M17.2354 26.6309V28.7799H19.3465V26.6309H17.2354Z" fill="white" fill-opacity="0.75"/>
<path d="M11.3242 7.77148V9.92051H13.4354V7.77148H11.3242Z" fill="white" fill-opacity="0.75"/>
<path d="M21.3135 7.27539V9.42442H23.4247V7.27539H21.3135Z" fill="white" fill-opacity="0.75"/>
<path d="M6.16016 11.3555V13.5045H8.27134V11.3555H6.16016Z" fill="white" fill-opacity="0.75"/>
<path d="M23.5146 11.2285V13.3775H25.6258V11.2285H23.5146Z" fill="white" fill-opacity="0.75"/>
<path d="M12.7422 11.3555V13.5045H14.8534V11.3555H12.7422Z" fill="white" fill-opacity="0.75"/>
<path d="M17.4209 8.2168V10.3658H19.5321V8.2168H17.4209Z" fill="white" fill-opacity="0.75"/>
<path d="M12.0703 14.9258V17.076H14.1815V14.9258H12.0703Z" fill="white" fill-opacity="0.75"/>
<path d="M5.66406 18.459V20.608H7.77525V18.459H5.66406Z" fill="white" fill-opacity="0.75"/>
<path d="M8.41699 21.7207V23.8697H10.5282V21.7207H8.41699Z" fill="white" fill-opacity="0.75"/>
<path d="M11.5107 22.4121V24.5611H13.6219V22.4121H11.5107Z" fill="white" fill-opacity="0.75"/>
<path d="M13.6816 25.3301V27.4791H15.7928V25.3301H13.6816Z" fill="white" fill-opacity="0.75"/>
<path d="M25.3835 22.936C25.705 22.422 25.9631 21.8788 26.1585 21.3058C26.3533 20.7329 26.4507 20.1471 26.4507 19.5498C26.4507 17.8892 25.8824 16.4786 24.7453 15.3162C23.6087 14.1538 22.2266 13.5723 20.5982 13.5723C18.9698 13.5723 17.5865 14.1513 16.4463 15.3083C15.3074 16.4658 14.7373 17.8734 14.7373 19.5303C14.7373 21.1866 15.3086 22.596 16.4505 23.7554C17.5919 24.9159 18.9788 25.495 20.6096 25.495C21.1964 25.495 21.7712 25.4019 22.3335 25.2152C22.897 25.0273 23.4187 24.759 23.9015 24.408L28.5183 29.1075L30.0002 27.5996L25.3835 22.936ZM23.2824 22.2748C22.5474 23.02 21.6493 23.3916 20.5892 23.3916C19.5304 23.3916 18.634 23.0181 17.9026 22.27C17.1706 21.5218 16.8043 20.6075 16.8043 19.5297C16.8043 18.4506 17.1724 17.5382 17.9074 16.7943C18.6424 16.0492 19.5393 15.6763 20.5994 15.6763C21.6595 15.6763 22.5546 16.051 23.2866 16.7992C24.018 17.5473 24.3838 18.4603 24.3838 19.5394C24.3844 20.6185 24.0169 21.5297 23.2824 22.2748Z" fill="white" fill-opacity="0.75"/>
<path d="M15.7637 2C8.16266 2 2 8.27251 2 16.0103C2 23.4909 7.75871 29.601 15.0083 30V27.9702C8.85882 27.5736 3.99048 22.371 3.99048 16.0103C3.99048 9.39173 9.26158 4.02616 15.7637 4.02616C21.4459 4.02616 26.1869 8.12348 27.293 13.5724H29.32C28.1864 6.99574 22.549 2 15.7637 2Z" fill="white" fill-opacity="0.75"/>
</svg>
