<svg width="32" height="32" viewBox="0 0 32 32" fill="none" xmlns="http://www.w3.org/2000/svg">
<path d="M15.9997 20.266C16.8219 20.266 17.5108 19.9882 18.0663 19.4327C18.6219 18.8771 18.8997 18.1882 18.8997 17.366C18.8997 16.5438 18.6219 15.8549 18.0663 15.2993C17.5108 14.7438 16.8219 14.466 15.9997 14.466C15.1775 14.466 14.4886 14.7438 13.933 15.2993C13.3775 15.8549 13.0997 16.5438 13.0997 17.366C13.0997 18.1882 13.3775 18.8771 13.933 19.4327C14.4886 19.9882 15.1775 20.266 15.9997 20.266ZM24.533 27.3327L18.733 21.5327C18.2886 21.7993 17.8497 21.9882 17.4163 22.0993C16.983 22.2105 16.5108 22.266 15.9997 22.266C14.6219 22.266 13.4608 21.7938 12.5163 20.8493C11.5719 19.9049 11.0997 18.7438 11.0997 17.366C11.0997 15.9882 11.5719 14.8271 12.5163 13.8827C13.4608 12.9382 14.6219 12.466 15.9997 12.466C17.3775 12.466 18.5386 12.9382 19.483 13.8827C20.4275 14.8271 20.8997 15.9882 20.8997 17.366C20.8997 17.8771 20.8275 18.366 20.683 18.8327C20.5386 19.2993 20.3219 19.7105 20.033 20.066L24.6663 24.6993V11.266L18.933 4.66602H7.33301V27.3327H24.533ZM7.33301 29.3327C6.79967 29.3327 6.33301 29.1327 5.93301 28.7327C5.53301 28.3327 5.33301 27.866 5.33301 27.3327V4.66602C5.33301 4.13268 5.53301 3.66602 5.93301 3.26602C6.33301 2.86602 6.79967 2.66602 7.33301 2.66602H19.733L26.6663 10.6327V27.3327C26.6663 27.866 26.4663 28.3327 26.0663 28.7327C25.6663 29.1327 25.1997 29.3327 24.6663 29.3327H7.33301Z" fill="white" fill-opacity="0.75"/>
</svg>
