<svg width="20" height="20" viewBox="0 0 20 20" fill="none" xmlns="http://www.w3.org/2000/svg">
<path d="M10 16.6673C9.72222 16.6673 9.48611 16.5701 9.29167 16.3757C9.09722 16.1812 9 15.9451 9 15.6673C9 15.3895 9.09722 15.1534 9.29167 14.959C9.48611 14.7645 9.72222 14.6673 10 14.6673C10.2778 14.6673 10.5139 14.7645 10.7083 14.959C10.9028 15.1534 11 15.3895 11 15.6673C11 15.9451 10.9028 16.1812 10.7083 16.3757C10.5139 16.5701 10.2778 16.6673 10 16.6673ZM10 11.0007C9.72222 11.0007 9.48611 10.9034 9.29167 10.709C9.09722 10.5145 9 10.2784 9 10.0007C9 9.72287 9.09722 9.48676 9.29167 9.29232C9.48611 9.09787 9.72222 9.00065 10 9.00065C10.2778 9.00065 10.5139 9.09787 10.7083 9.29232C10.9028 9.48676 11 9.72287 11 10.0007C11 10.2784 10.9028 10.5145 10.7083 10.709C10.5139 10.9034 10.2778 11.0007 10 11.0007ZM10 5.33398C9.72222 5.33398 9.48611 5.23676 9.29167 5.04232C9.09722 4.84787 9 4.61176 9 4.33398C9 4.05621 9.09722 3.8201 9.29167 3.62565C9.48611 3.43121 9.72222 3.33398 10 3.33398C10.2778 3.33398 10.5139 3.43121 10.7083 3.62565C10.9028 3.8201 11 4.05621 11 4.33398C11 4.61176 10.9028 4.84787 10.7083 5.04232C10.5139 5.23676 10.2778 5.33398 10 5.33398Z" fill="white" fill-opacity="0.75"/>
</svg>
