<svg width="32" height="32" viewBox="0 0 32 32" fill="none" xmlns="http://www.w3.org/2000/svg">
<path d="M0 24V22.2333C0 21.3667 0.461111 20.6667 1.38333 20.1333C2.30556 19.6 3.51111 19.3333 5 19.3333C5.28889 19.3333 5.55556 19.3389 5.8 19.35C6.04444 19.3611 6.28889 19.3889 6.53333 19.4333C6.35556 19.8111 6.22222 20.2 6.13333 20.6C6.04444 21 6 21.4111 6 21.8333V24H0ZM8 24V21.8333C8 21.1222 8.19444 20.4722 8.58333 19.8833C8.97222 19.2944 9.52222 18.7778 10.2333 18.3333C10.9444 17.8889 11.7944 17.5556 12.7833 17.3333C13.7722 17.1111 14.8444 17 16 17C17.1778 17 18.2611 17.1111 19.25 17.3333C20.2389 17.5556 21.0889 17.8889 21.8 18.3333C22.5111 18.7778 23.0556 19.2944 23.4333 19.8833C23.8111 20.4722 24 21.1222 24 21.8333V24H8ZM26 24V21.8333C26 21.3889 25.9611 20.9722 25.8833 20.5833C25.8056 20.1944 25.6778 19.8111 25.5 19.4333C25.7444 19.3889 25.9889 19.3611 26.2333 19.35C26.4778 19.3389 26.7333 19.3333 27 19.3333C28.5111 19.3333 29.7222 19.6 30.6333 20.1333C31.5444 20.6667 32 21.3667 32 22.2333V24H26ZM10 22H22V21.8C22 20.9778 21.4389 20.3056 20.3167 19.7833C19.1944 19.2611 17.7556 19 16 19C14.2444 19 12.8056 19.2611 11.6833 19.7833C10.5611 20.3056 10 20.9889 10 21.8333V22ZM5 18.3333C4.35556 18.3333 3.80556 18.1056 3.35 17.65C2.89444 17.1944 2.66667 16.6444 2.66667 16C2.66667 15.3556 2.89444 14.8056 3.35 14.35C3.80556 13.8944 4.35556 13.6667 5 13.6667C5.64444 13.6667 6.19444 13.8944 6.65 14.35C7.10556 14.8056 7.33333 15.3556 7.33333 16C7.33333 16.6444 7.10556 17.1944 6.65 17.65C6.19444 18.1056 5.64444 18.3333 5 18.3333ZM27 18.3333C26.3556 18.3333 25.8056 18.1056 25.35 17.65C24.8944 17.1944 24.6667 16.6444 24.6667 16C24.6667 15.3556 24.8944 14.8056 25.35 14.35C25.8056 13.8944 26.3556 13.6667 27 13.6667C27.6444 13.6667 28.1944 13.8944 28.65 14.35C29.1056 14.8056 29.3333 15.3556 29.3333 16C29.3333 16.6444 29.1056 17.1944 28.65 17.65C28.1944 18.1056 27.6444 18.3333 27 18.3333ZM16 16C14.8889 16 13.9444 15.6111 13.1667 14.8333C12.3889 14.0556 12 13.1111 12 12C12 10.8667 12.3889 9.91667 13.1667 9.15C13.9444 8.38333 14.8889 8 16 8C17.1333 8 18.0833 8.38333 18.85 9.15C19.6167 9.91667 20 10.8667 20 12C20 13.1111 19.6167 14.0556 18.85 14.8333C18.0833 15.6111 17.1333 16 16 16ZM16 14C16.5778 14 17.0556 13.8056 17.4333 13.4167C17.8111 13.0278 18 12.5556 18 12C18 11.4222 17.8111 10.9444 17.4333 10.5667C17.0556 10.1889 16.5778 10 16 10C15.4444 10 14.9722 10.1889 14.5833 10.5667C14.1944 10.9444 14 11.4222 14 12C14 12.5556 14.1944 13.0278 14.5833 13.4167C14.9722 13.8056 15.4444 14 16 14Z" fill="white" fill-opacity="0.75"/>
</svg>
