<svg width="16" height="16" viewBox="0 0 16 16" fill="none" xmlns="http://www.w3.org/2000/svg">
<path d="M14.5833 15.4785L9.10417 9.99935C8.6875 10.3605 8.20139 10.6417 7.64583 10.8431C7.09028 11.0445 6.5 11.1452 5.875 11.1452C4.375 11.1452 3.10417 10.6243 2.0625 9.58268C1.02083 8.54101 0.5 7.28407 0.5 5.81185C0.5 4.33963 1.02083 3.08268 2.0625 2.04102C3.10417 0.999349 4.36806 0.478516 5.85417 0.478516C7.32639 0.478516 8.57986 0.999349 9.61458 2.04102C10.6493 3.08268 11.1667 4.33963 11.1667 5.81185C11.1667 6.40907 11.0694 6.98546 10.875 7.54102C10.6806 8.09657 10.3889 8.6174 10 9.10352L15.5 14.5618L14.5833 15.4785ZM5.85417 9.89518C6.97917 9.89518 7.9375 9.49588 8.72917 8.69726C9.52083 7.89865 9.91667 6.93685 9.91667 5.81185C9.91667 4.68685 9.52083 3.72504 8.72917 2.92643C7.9375 2.12782 6.97917 1.72852 5.85417 1.72852C4.71528 1.72852 3.74653 2.12782 2.94792 2.92643C2.14931 3.72504 1.75 4.68685 1.75 5.81185C1.75 6.93685 2.14931 7.89865 2.94792 8.69726C3.74653 9.49588 4.71528 9.89518 5.85417 9.89518Z" fill="white" fill-opacity="0.6"/>
</svg>
