<svg width="20" height="20" viewBox="0 0 20 20" fill="none" xmlns="http://www.w3.org/2000/svg">
<path d="M4.0835 13.1048C3.80572 12.6048 3.61127 12.1013 3.50016 11.5944C3.38905 11.0875 3.3335 10.5701 3.3335 10.0423C3.3335 8.22287 3.98975 6.6569 5.30225 5.3444C6.61475 4.0319 8.18072 3.37565 10.0002 3.37565H10.896L9.22933 1.70898L10.0418 0.896484L13.146 4.00065L10.0418 7.10482L9.2085 6.27148L10.8543 4.62565H10.0002C8.51405 4.62565 7.23975 5.1569 6.17725 6.2194C5.11475 7.2819 4.5835 8.55621 4.5835 10.0423C4.5835 10.4451 4.62169 10.827 4.69808 11.1882C4.77447 11.5493 4.86822 11.8895 4.97933 12.209L4.0835 13.1048ZM9.91683 19.1673L6.81266 16.0631L9.91683 12.959L10.7293 13.7715L9.06266 15.4381H10.0002C11.4863 15.4381 12.7606 14.9069 13.8231 13.8444C14.8856 12.7819 15.4168 11.5076 15.4168 10.0215C15.4168 9.61871 15.3821 9.23676 15.3127 8.87565C15.2432 8.51454 15.1391 8.17426 15.0002 7.85482L15.896 6.95898C16.1738 7.45898 16.3717 7.96246 16.4897 8.4694C16.6078 8.97635 16.6668 9.49371 16.6668 10.0215C16.6668 11.8409 16.0106 13.4069 14.6981 14.7194C13.3856 16.0319 11.8196 16.6881 10.0002 16.6881H9.06266L10.7293 18.3548L9.91683 19.1673Z" fill="white" fill-opacity="0.75"/>
</svg>
